<svg width="191" height="37" viewBox="0 0 191 37" fill="none" xmlns="http://www.w3.org/2000/svg">
<path d="M18 0L23.8191 10.2683L35.119 12.7832L27.4155 21.6442L28.5801 33.4668L18 28.675L7.41987 33.4668L8.58454 21.6442L0.880983 12.7832L12.1809 10.2683L18 0Z" fill="#D9D9D9"/>
<path d="M54 0L54.7406 17.4523L71.119 12.7832L55.1983 18.9002L64.5801 33.4668L54 19.795L43.4199 33.4668L52.8017 18.9002L36.881 12.7832L53.2594 17.4523L54 0Z" fill="#F5FF7D"/>
<path d="M85.18 27.6C84.4067 27.6 83.7267 27.4867 83.14 27.26C82.5533 27.0333 82.06 26.7067 81.66 26.28C81.26 25.8533 80.96 25.34 80.76 24.74C80.56 24.1267 80.46 23.4467 80.46 22.7C80.46 21.5933 80.58 20.5 80.82 19.42C81.0733 18.34 81.4267 17.3267 81.88 16.38C82.3467 15.4333 82.9067 14.6 83.56 13.88C84.2133 13.16 84.9467 12.5933 85.76 12.18C86.5867 11.7667 87.48 11.56 88.44 11.56C89.3067 11.56 90.06 11.76 90.7 12.16C91.3533 12.5467 91.8533 13.1067 92.2 13.84C92.56 14.56 92.74 15.4133 92.74 16.4C92.74 17.0133 92.68 17.66 92.56 18.34C92.44 19.0067 92.2667 19.66 92.04 20.3C91.8267 20.94 91.56 21.52 91.24 22.04C90.9333 22.5467 90.58 22.9533 90.18 23.26C89.78 23.5667 89.3467 23.72 88.88 23.72C88.32 23.72 87.9267 23.6 87.7 23.36C87.4867 23.1067 87.34 22.7667 87.26 22.34H87.22C86.9667 22.7667 86.68 23.1067 86.36 23.36C86.04 23.6 85.7267 23.72 85.42 23.72C84.78 23.72 84.3067 23.5333 84 23.16C83.7067 22.7733 83.56 22.2133 83.56 21.48C83.56 21.0267 83.6133 20.5267 83.72 19.98C83.8267 19.4333 83.9867 18.8867 84.2 18.34C84.4267 17.78 84.7 17.2733 85.02 16.82C85.3533 16.3667 85.74 16 86.18 15.72C86.62 15.44 87.1133 15.3 87.66 15.3C88.1533 15.3 88.5933 15.3467 88.98 15.44C89.3667 15.5333 89.7067 15.6533 90 15.8L88.8 20.76C88.76 20.9333 88.7267 21.1 88.7 21.26C88.6733 21.4067 88.66 21.5267 88.66 21.62C88.66 21.8333 88.6867 21.9933 88.74 22.1C88.8067 22.1933 88.8867 22.24 88.98 22.24C89.26 22.24 89.5133 22.1 89.74 21.82C89.9667 21.54 90.16 21.18 90.32 20.74C90.4933 20.2867 90.6333 19.8 90.74 19.28C90.86 18.76 90.9467 18.26 91 17.78C91.0533 17.3 91.08 16.8933 91.08 16.56C91.08 15.7867 90.9667 15.1467 90.74 14.64C90.5267 14.12 90.2133 13.7333 89.8 13.48C89.3867 13.2133 88.8867 13.08 88.3 13.08C87.54 13.08 86.84 13.2667 86.2 13.64C85.5733 14 85.0067 14.5 84.5 15.14C83.9933 15.7667 83.5667 16.4867 83.22 17.3C82.8733 18.1 82.6067 18.9533 82.42 19.86C82.2333 20.7533 82.14 21.6467 82.14 22.54C82.14 23.2467 82.24 23.8667 82.44 24.4C82.6533 24.9333 82.98 25.3467 83.42 25.64C83.8733 25.9333 84.4533 26.08 85.16 26.08C85.5333 26.08 85.9 26.0533 86.26 26C86.62 25.9467 86.9867 25.86 87.36 25.74C87.7333 25.62 88.1133 25.4733 88.5 25.3L88.48 26.78C88.1467 26.94 87.7867 27.08 87.4 27.2C87.0133 27.3333 86.6333 27.4333 86.26 27.5C85.8867 27.5667 85.5267 27.6 85.18 27.6ZM85.84 22.22C86.1067 22.22 86.3667 22.0067 86.62 21.58C86.8733 21.14 87.1067 20.4867 87.32 19.62L88.02 16.88C87.9267 16.8533 87.84 16.8333 87.76 16.82C87.68 16.8067 87.58 16.8 87.46 16.8C87.2067 16.8 86.9667 16.9067 86.74 17.12C86.5267 17.32 86.3333 17.5933 86.16 17.94C85.9867 18.2733 85.84 18.64 85.72 19.04C85.6 19.44 85.5067 19.84 85.44 20.24C85.3733 20.6267 85.34 20.9733 85.34 21.28C85.34 21.6133 85.38 21.8533 85.46 22C85.54 22.1467 85.6667 22.22 85.84 22.22ZM95.2934 26.2C94.8534 26.2 94.4734 26.0733 94.1534 25.82C93.8334 25.5667 93.5868 25.2067 93.4134 24.74C93.2401 24.2733 93.1534 23.7133 93.1534 23.06C93.1534 22.4867 93.2068 21.84 93.3134 21.12C93.4201 20.3867 93.5868 19.66 93.8134 18.94C94.0401 18.2067 94.3201 17.54 94.6534 16.94C95.0001 16.3267 95.4068 15.8333 95.8734 15.46C96.3401 15.0867 96.8668 14.9 97.4534 14.9C97.7468 14.9 98.0068 14.9533 98.2334 15.06C98.4734 15.1667 98.6868 15.3333 98.8734 15.56C99.0601 15.7867 99.2068 16.08 99.3134 16.44H99.3534L99.8334 15.1H101.913L99.5934 26H97.6534L97.6734 24.58H97.6134C97.3868 24.9 97.1534 25.18 96.9134 25.42C96.6868 25.66 96.4401 25.8533 96.1734 26C95.9201 26.1333 95.6268 26.2 95.2934 26.2ZM96.3134 24.16C96.6601 24.16 96.9601 23.9933 97.2134 23.66C97.4668 23.3133 97.6801 22.8933 97.8534 22.4C98.0268 21.9067 98.1734 21.42 98.2934 20.94C98.4534 20.2867 98.5534 19.7667 98.5934 19.38C98.6468 18.98 98.6734 18.62 98.6734 18.3C98.6734 17.8733 98.6068 17.5533 98.4734 17.34C98.3401 17.1133 98.1401 17 97.8734 17C97.6068 17 97.3534 17.14 97.1134 17.42C96.8868 17.6867 96.6801 18.04 96.4934 18.48C96.3201 18.9067 96.1668 19.38 96.0334 19.9C95.9001 20.42 95.8001 20.9267 95.7334 21.42C95.6668 21.9133 95.6334 22.3533 95.6334 22.74C95.6334 23.2067 95.6868 23.56 95.7934 23.8C95.9134 24.04 96.0868 24.16 96.3134 24.16ZM101.579 26L104.819 10.8H107.219L103.979 26H101.579ZM105.974 26L108.294 15.1H110.674L108.374 26H105.974ZM109.854 13.68C109.48 13.68 109.194 13.5933 108.994 13.42C108.807 13.2467 108.714 12.9933 108.714 12.66C108.714 12.38 108.767 12.1 108.874 11.82C108.994 11.54 109.174 11.3133 109.414 11.14C109.654 10.9533 109.954 10.86 110.314 10.86C110.674 10.86 110.954 10.94 111.154 11.1C111.354 11.26 111.454 11.5133 111.454 11.86C111.454 12.3533 111.307 12.78 111.014 13.14C110.72 13.5 110.334 13.68 109.854 13.68ZM113.768 26.2C113.154 26.2 112.641 26.0667 112.228 25.8C111.814 25.5333 111.494 25.1467 111.268 24.64C111.054 24.12 110.948 23.5067 110.948 22.8C110.948 22.1467 111.001 21.46 111.108 20.74C111.228 20.02 111.408 19.3133 111.648 18.62C111.901 17.9267 112.221 17.3 112.608 16.74C113.008 16.18 113.481 15.7333 114.028 15.4C114.574 15.0667 115.214 14.9 115.948 14.9C116.388 14.9 116.794 14.96 117.168 15.08C117.554 15.1867 117.914 15.3533 118.248 15.58L117.248 17.5C117.074 17.3533 116.868 17.2333 116.628 17.14C116.401 17.0467 116.174 17 115.948 17C115.588 17 115.268 17.1267 114.988 17.38C114.721 17.6333 114.488 17.9733 114.288 18.4C114.088 18.8133 113.921 19.2667 113.788 19.76C113.668 20.24 113.574 20.72 113.508 21.2C113.454 21.6667 113.428 22.0867 113.428 22.46C113.428 22.82 113.461 23.1267 113.528 23.38C113.608 23.62 113.721 23.8067 113.868 23.94C114.014 24.06 114.194 24.12 114.408 24.12C114.674 24.12 114.968 24.0533 115.288 23.92C115.608 23.7867 115.948 23.5933 116.308 23.34L116.288 25.42C115.994 25.6333 115.621 25.82 115.168 25.98C114.714 26.1267 114.248 26.2 113.768 26.2ZM121.158 26.2C120.505 26.2 119.938 26.06 119.458 25.78C118.991 25.5 118.631 25.1 118.378 24.58C118.125 24.06 117.998 23.44 117.998 22.72C117.998 21.76 118.105 20.82 118.318 19.9C118.545 18.9667 118.871 18.1267 119.298 17.38C119.725 16.6333 120.251 16.04 120.878 15.6C121.518 15.1467 122.258 14.92 123.098 14.92C123.885 14.92 124.518 15.1467 124.998 15.6C125.491 16.04 125.738 16.6533 125.738 17.44C125.738 18.08 125.618 18.6467 125.378 19.14C125.138 19.62 124.791 20.0267 124.338 20.36C123.898 20.68 123.365 20.9267 122.738 21.1C122.111 21.26 121.411 21.34 120.638 21.34H120.478C120.438 21.5133 120.405 21.7 120.378 21.9C120.365 22.0867 120.358 22.2733 120.358 22.46C120.358 23.0867 120.471 23.54 120.698 23.82C120.938 24.1 121.291 24.24 121.758 24.24C122.171 24.24 122.551 24.1867 122.898 24.08C123.245 23.9733 123.651 23.7867 124.118 23.52V25.38C123.638 25.6867 123.158 25.9 122.678 26.02C122.198 26.14 121.691 26.2 121.158 26.2ZM120.878 19.6C121.545 19.6 122.071 19.52 122.458 19.36C122.845 19.1867 123.118 18.9533 123.278 18.66C123.438 18.3667 123.518 18.04 123.518 17.68C123.518 17.4133 123.451 17.2067 123.318 17.06C123.185 16.9 122.991 16.82 122.738 16.82C122.485 16.82 122.238 16.9333 121.998 17.16C121.758 17.3733 121.538 17.6867 121.338 18.1C121.138 18.5133 120.965 19.0133 120.818 19.6H120.878ZM128.478 26.2C127.785 26.2 127.285 26 126.978 25.6C126.685 25.1867 126.538 24.66 126.538 24.02C126.538 23.7933 126.552 23.5533 126.578 23.3C126.605 23.0333 126.658 22.7267 126.738 22.38L127.838 17.12H126.878L127.158 15.84L128.478 15.16L129.478 12.78H131.178L130.678 15.1H132.358L131.918 17.12H130.238L129.078 22.68C129.052 22.8267 129.025 22.9667 128.998 23.1C128.972 23.2333 128.958 23.3533 128.958 23.46C128.958 23.6733 128.998 23.8333 129.078 23.94C129.172 24.0333 129.318 24.08 129.518 24.08C129.625 24.08 129.778 24.0667 129.978 24.04C130.178 24 130.378 23.9333 130.578 23.84L130.558 25.78C130.265 25.9267 129.918 26.0333 129.518 26.1C129.132 26.1667 128.785 26.2 128.478 26.2ZM131.56 26L134.78 10.8H137.18L136.46 14.16C136.42 14.3333 136.373 14.5133 136.32 14.7C136.28 14.8733 136.24 15.0533 136.2 15.24C136.16 15.4133 136.106 15.5933 136.04 15.78C135.973 15.9667 135.913 16.1467 135.86 16.32H135.9C136.1 16.0133 136.306 15.7533 136.52 15.54C136.746 15.3267 136.993 15.1667 137.26 15.06C137.54 14.9533 137.84 14.9 138.16 14.9C138.586 14.9 138.953 14.9933 139.26 15.18C139.566 15.3667 139.8 15.6333 139.96 15.98C140.12 16.3267 140.2 16.7467 140.2 17.24C140.2 17.4933 140.173 17.7867 140.12 18.12C140.08 18.4533 140.026 18.7733 139.96 19.08L138.5 26H136.1L137.44 19.66C137.506 19.3533 137.56 19.0467 137.6 18.74C137.653 18.4333 137.68 18.1533 137.68 17.9C137.68 17.66 137.62 17.4667 137.5 17.32C137.393 17.16 137.22 17.08 136.98 17.08C136.753 17.08 136.533 17.1733 136.32 17.36C136.12 17.5333 135.926 17.8333 135.74 18.26C135.566 18.6733 135.4 19.2333 135.24 19.94L133.96 26H131.56ZM144.166 26.2C143.513 26.2 142.946 26.06 142.466 25.78C141.999 25.5 141.639 25.1 141.386 24.58C141.133 24.06 141.006 23.44 141.006 22.72C141.006 21.76 141.113 20.82 141.326 19.9C141.553 18.9667 141.879 18.1267 142.306 17.38C142.733 16.6333 143.259 16.04 143.886 15.6C144.526 15.1467 145.266 14.92 146.106 14.92C146.893 14.92 147.526 15.1467 148.006 15.6C148.499 16.04 148.746 16.6533 148.746 17.44C148.746 18.08 148.626 18.6467 148.386 19.14C148.146 19.62 147.799 20.0267 147.346 20.36C146.906 20.68 146.373 20.9267 145.746 21.1C145.119 21.26 144.419 21.34 143.646 21.34H143.486C143.446 21.5133 143.413 21.7 143.386 21.9C143.373 22.0867 143.366 22.2733 143.366 22.46C143.366 23.0867 143.479 23.54 143.706 23.82C143.946 24.1 144.299 24.24 144.766 24.24C145.179 24.24 145.559 24.1867 145.906 24.08C146.253 23.9733 146.659 23.7867 147.126 23.52V25.38C146.646 25.6867 146.166 25.9 145.686 26.02C145.206 26.14 144.699 26.2 144.166 26.2ZM143.886 19.6C144.553 19.6 145.079 19.52 145.466 19.36C145.853 19.1867 146.126 18.9533 146.286 18.66C146.446 18.3667 146.526 18.04 146.526 17.68C146.526 17.4133 146.459 17.2067 146.326 17.06C146.193 16.9 145.999 16.82 145.746 16.82C145.493 16.82 145.246 16.9333 145.006 17.16C144.766 17.3733 144.546 17.6867 144.346 18.1C144.146 18.5133 143.973 19.0133 143.826 19.6H143.886ZM149.829 26L150.109 15.1H152.469L152.249 19.84C152.235 20.2533 152.202 20.6533 152.149 21.04C152.109 21.4267 152.075 21.8 152.049 22.16H152.109C152.175 21.9467 152.242 21.72 152.309 21.48C152.389 21.24 152.469 21 152.549 20.76C152.642 20.5067 152.729 20.2667 152.809 20.04L154.649 15.1H157.369L157.129 19.96C157.115 20.3467 157.089 20.7467 157.049 21.16C157.022 21.56 156.995 21.94 156.969 22.3H157.009C157.102 22.02 157.195 21.7333 157.289 21.44C157.382 21.1467 157.475 20.86 157.569 20.58C157.675 20.2867 157.775 20 157.869 19.72L159.569 15.1H161.969L157.629 26H154.849L155.169 20.22C155.182 20.0067 155.195 19.8 155.209 19.6C155.235 19.3867 155.255 19.18 155.269 18.98C155.282 18.7667 155.295 18.5533 155.309 18.34H155.269C155.215 18.5267 155.155 18.7067 155.089 18.88C155.035 19.0533 154.975 19.2267 154.909 19.4C154.855 19.56 154.795 19.7333 154.729 19.92L152.489 26H149.829ZM164.338 26.2C163.711 26.2 163.171 26.06 162.718 25.78C162.265 25.5 161.918 25.1 161.678 24.58C161.451 24.0467 161.338 23.4133 161.338 22.68C161.338 22.12 161.391 21.5 161.498 20.82C161.618 20.1267 161.798 19.4333 162.038 18.74C162.278 18.0467 162.591 17.4133 162.978 16.84C163.378 16.2533 163.851 15.7867 164.398 15.44C164.958 15.08 165.605 14.9 166.338 14.9C166.951 14.9 167.478 15.0467 167.918 15.34C168.358 15.62 168.691 16.0267 168.918 16.56C169.158 17.08 169.278 17.7067 169.278 18.44C169.278 19.08 169.218 19.7533 169.098 20.46C168.978 21.1667 168.791 21.86 168.538 22.54C168.285 23.22 167.965 23.84 167.578 24.4C167.191 24.9467 166.725 25.3867 166.178 25.72C165.645 26.04 165.031 26.2 164.338 26.2ZM164.618 24.16C164.898 24.16 165.151 24.0333 165.378 23.78C165.618 23.5133 165.825 23.1667 165.998 22.74C166.185 22.3 166.338 21.8267 166.458 21.32C166.591 20.8 166.691 20.2867 166.758 19.78C166.825 19.2733 166.858 18.82 166.858 18.42C166.858 18.1 166.831 17.8333 166.778 17.62C166.725 17.3933 166.631 17.2267 166.498 17.12C166.378 17 166.218 16.94 166.018 16.94C165.725 16.94 165.458 17.08 165.218 17.36C164.978 17.6267 164.765 17.9867 164.578 18.44C164.405 18.88 164.251 19.36 164.118 19.88C163.998 20.4 163.905 20.9067 163.838 21.4C163.785 21.8933 163.758 22.3267 163.758 22.7C163.758 23.1533 163.825 23.5133 163.958 23.78C164.105 24.0333 164.325 24.16 164.618 24.16ZM169.508 26L171.828 15.1H173.708L173.568 16.78H173.648C173.875 16.34 174.102 15.9867 174.328 15.72C174.568 15.44 174.828 15.2333 175.108 15.1C175.388 14.9667 175.708 14.9 176.068 14.9C176.202 14.9 176.328 14.9133 176.448 14.94C176.582 14.9533 176.728 14.9867 176.888 15.04L176.148 17.64C176.015 17.5867 175.875 17.5467 175.728 17.52C175.595 17.4933 175.448 17.48 175.288 17.48C174.982 17.48 174.708 17.5667 174.468 17.74C174.228 17.9 174.015 18.1267 173.828 18.42C173.655 18.7 173.508 19.0133 173.388 19.36C173.268 19.7067 173.168 20.06 173.088 20.42L171.908 26H169.508ZM175.719 26L178.959 10.8H181.359L178.119 26H175.719ZM182.754 26.2C182.301 26.2 181.914 26.0733 181.594 25.82C181.288 25.5667 181.048 25.2067 180.874 24.74C180.701 24.2733 180.614 23.7133 180.614 23.06C180.614 22.5 180.668 21.8667 180.774 21.16C180.881 20.44 181.041 19.7133 181.254 18.98C181.481 18.2467 181.761 17.5733 182.094 16.96C182.428 16.3467 182.814 15.8533 183.254 15.48C183.708 15.0933 184.214 14.9 184.774 14.9C185.081 14.9 185.361 14.9533 185.614 15.06C185.881 15.1533 186.114 15.3 186.314 15.5C186.514 15.7 186.668 15.9533 186.774 16.26H186.834C186.861 16.02 186.888 15.7933 186.914 15.58C186.954 15.3533 186.994 15.14 187.034 14.94C187.074 14.74 187.108 14.5667 187.134 14.42L187.894 10.8H190.294L187.054 26H185.114L185.134 24.7H185.074C184.834 25.02 184.594 25.2933 184.354 25.52C184.128 25.7333 183.888 25.9 183.634 26.02C183.381 26.14 183.088 26.2 182.754 26.2ZM183.774 24.16C184.041 24.16 184.281 24.06 184.494 23.86C184.721 23.6467 184.921 23.3667 185.094 23.02C185.268 22.6733 185.414 22.2867 185.534 21.86C185.668 21.4333 185.774 21 185.854 20.56C185.948 20.12 186.014 19.7067 186.054 19.32C186.108 18.92 186.134 18.5867 186.134 18.32C186.134 17.88 186.068 17.5533 185.934 17.34C185.801 17.1133 185.601 17 185.334 17C185.041 17 184.774 17.1467 184.534 17.44C184.308 17.7333 184.101 18.1133 183.914 18.58C183.728 19.0333 183.574 19.5267 183.454 20.06C183.334 20.58 183.241 21.08 183.174 21.56C183.121 22.04 183.094 22.44 183.094 22.76C183.094 23.2 183.148 23.5467 183.254 23.8C183.374 24.04 183.548 24.16 183.774 24.16Z" fill="white"/>
</svg>
